<svg width="200" height="181" viewBox="0 0 200 181" fill="none" xmlns="http://www.w3.org/2000/svg">
<g clip-path="url(#clip0_467_302)">
<path d="M198.245 69.6032C198.174 69.6033 198.104 69.5813 198.045 69.5402L101.007 1.78497C100.711 1.57974 100.36 1.47006 100.001 1.47068C99.6418 1.47129 99.2913 1.58217 98.9967 1.78841L2.65745 69.5395C2.58125 69.5931 2.48694 69.6141 2.39527 69.598C2.30359 69.5819 2.22206 69.5299 2.16861 69.4535C2.11517 69.3771 2.09418 69.2825 2.11026 69.1906C2.12635 69.0987 2.1782 69.017 2.2544 68.9634L98.5937 1.21229C99.0062 0.923597 99.4969 0.76841 100 0.767581C100.503 0.766753 100.994 0.92032 101.408 1.20765L198.446 68.9627C198.507 69.0055 198.553 69.0668 198.577 69.1377C198.602 69.2086 198.602 69.2854 198.58 69.3568C198.558 69.4283 198.513 69.4907 198.453 69.5351C198.393 69.5794 198.32 69.6032 198.245 69.6032Z" fill="#3F3D56"/>
<path opacity="0.2" d="M8.1626 72.0047L100.097 3.69385L192.728 76.8653L104.833 129.106L57.1142 118.2L8.1626 72.0047Z" fill="url(#paint0_linear_467_302)"/>
<path d="M61.1424 161.372H15.7247C15.4458 161.373 15.1696 161.318 14.9119 161.211C14.6541 161.105 14.4199 160.948 14.2225 160.75C14.0252 160.553 13.8687 160.318 13.7619 160.06C13.6551 159.802 13.6001 159.525 13.6001 159.245C13.6001 158.965 13.6551 158.689 13.7619 158.43C13.8687 158.172 14.0252 157.937 14.2225 157.74C14.4199 157.542 14.6541 157.386 14.9119 157.279C15.1696 157.172 15.4458 157.117 15.7247 157.118H61.1424C61.4212 157.117 61.6975 157.172 61.9552 157.279C62.213 157.386 62.4472 157.542 62.6445 157.74C62.8418 157.937 62.9984 158.172 63.1052 158.43C63.212 158.689 63.267 158.965 63.267 159.245C63.267 159.525 63.212 159.802 63.1052 160.06C62.9984 160.318 62.8418 160.553 62.6445 160.75C62.4472 160.948 62.213 161.105 61.9552 161.211C61.6975 161.318 61.4212 161.373 61.1424 161.372Z" fill="#A549E2"/>
<path d="M32.0196 152.226H15.7247C15.4458 152.226 15.1696 152.172 14.9119 152.065C14.6541 151.958 14.4199 151.801 14.2225 151.604C14.0252 151.406 13.8687 151.172 13.7619 150.913C13.6551 150.655 13.6001 150.378 13.6001 150.099C13.6001 149.819 13.6551 149.542 13.7619 149.284C13.8687 149.026 14.0252 148.791 14.2225 148.593C14.4199 148.396 14.6541 148.239 14.9119 148.132C15.1696 148.026 15.4458 147.971 15.7247 147.971H32.0196C32.2984 147.971 32.5746 148.026 32.8324 148.132C33.0902 148.239 33.3244 148.396 33.5217 148.593C33.719 148.791 33.8756 149.026 33.9824 149.284C34.0892 149.542 34.1442 149.819 34.1442 150.099C34.1442 150.378 34.0892 150.655 33.9824 150.913C33.8756 151.172 33.719 151.406 33.5217 151.604C33.3244 151.801 33.0902 151.958 32.8324 152.065C32.5746 152.172 32.2984 152.226 32.0196 152.226Z" fill="#A549E2"/>
<path d="M101.389 110.053C101.044 110.054 100.702 109.987 100.383 109.856L43.6841 86.2688V12.4381C43.6848 11.7852 43.9438 11.1593 44.4043 10.6977C44.8647 10.236 45.489 9.97635 46.1402 9.97559H154.912C155.563 9.97635 156.188 10.236 156.648 10.6977C157.109 11.1593 157.368 11.7852 157.368 12.4381V86.3203L157.262 86.366L102.427 109.844C102.098 109.982 101.746 110.054 101.389 110.053Z" fill="white"/>
<path d="M101.389 110.229C101.021 110.229 100.657 110.158 100.316 110.018L43.5088 86.3859V12.4377C43.5096 11.7382 43.7871 11.0676 44.2804 10.573C44.7738 10.0783 45.4427 9.80011 46.1404 9.79932H154.912C155.61 9.80011 156.279 10.0783 156.772 10.573C157.266 11.0676 157.543 11.7382 157.544 12.4377V86.4361L102.496 110.005C102.145 110.153 101.769 110.229 101.389 110.229ZM44.2105 85.916L100.584 109.368C101.109 109.581 101.698 109.578 102.221 109.358L156.842 85.9716V12.4377C156.842 11.9248 156.638 11.433 156.276 11.0703C155.914 10.7075 155.424 10.5035 154.912 10.5029H46.1404C45.6287 10.5035 45.1382 10.7075 44.7765 11.0703C44.4147 11.433 44.2112 11.9248 44.2106 12.4377L44.2105 85.916Z" fill="#3F3D56"/>
<path d="M197.544 68.8994H197.474L157.193 86.144L102.081 109.738C101.865 109.829 101.634 109.876 101.401 109.878C101.167 109.879 100.936 109.834 100.719 109.745L43.8596 86.0947L2.58943 68.9276L2.52638 68.8994H2.45614C1.80495 68.9001 1.18064 69.1598 0.720183 69.6215C0.259724 70.0831 0.000722544 70.709 0 71.3619V178.305C0.000723471 178.958 0.259724 179.584 0.720183 180.045C1.18064 180.507 1.80495 180.767 2.45614 180.767H197.544C198.195 180.767 198.819 180.507 199.28 180.045C199.74 179.584 199.999 178.958 200 178.305V71.3619C199.999 70.709 199.74 70.0831 199.28 69.6215C198.819 69.1598 198.195 68.9001 197.544 68.8994ZM199.298 178.305C199.298 178.771 199.113 179.219 198.784 179.548C198.455 179.878 198.009 180.064 197.544 180.064H2.45614C1.99091 180.064 1.54478 179.878 1.21581 179.548C0.886839 179.219 0.70194 178.771 0.701754 178.305V71.3619C0.702391 70.9071 0.878372 70.47 1.19291 70.1422C1.50744 69.8144 1.93617 69.6212 2.38949 69.603L43.8596 86.8546L100.449 110.396C101.062 110.646 101.748 110.642 102.358 110.386L157.193 86.9073L197.614 69.603C198.067 69.6226 198.494 69.8163 198.808 70.1439C199.122 70.4716 199.297 70.9078 199.298 71.3619V178.305Z" fill="url(#paint1_linear_467_302)"/>
<path d="M100.823 89.1178C98.7296 89.1217 96.692 88.4431 95.0172 87.1843L94.9134 87.1061L73.0499 70.3233C72.0373 69.5455 71.1875 68.5753 70.5489 67.4682C69.9104 66.3611 69.4955 65.1388 69.3281 63.8709C69.1607 62.6031 69.2441 61.3146 69.5733 60.0791C69.9026 58.8435 70.4714 57.6851 71.2472 56.6699C72.023 55.6548 72.9907 54.8027 74.0949 54.1625C75.1992 53.5223 76.4184 53.1064 77.6829 52.9386C78.9475 52.7707 80.2326 52.8543 81.465 53.1844C82.6973 53.5145 83.8528 54.0848 84.8653 54.8626L99.0269 65.7496L132.493 21.9921C133.269 20.9772 134.237 20.1255 135.341 19.4856C136.446 18.8458 137.665 18.4303 138.93 18.263C140.194 18.0956 141.48 18.1796 142.712 18.5102C143.944 18.8408 145.099 19.4115 146.111 20.1897L145.903 20.473L146.117 20.1938C148.159 21.7672 149.495 24.0884 149.832 26.6482C150.169 29.2079 149.479 31.7972 147.915 33.8479L108.551 85.3172C107.64 86.5032 106.47 87.463 105.129 88.1221C103.789 88.7812 102.316 89.1219 100.823 89.1178Z" fill="url(#paint2_linear_467_302)"/>
</g>
<defs>
<linearGradient id="paint0_linear_467_302" x1="100.445" y1="3.69385" x2="100.445" y2="129.106" gradientUnits="userSpaceOnUse">
<stop stop-color="#6857F6"/>
<stop offset="1" stop-color="#A549E2"/>
</linearGradient>
<linearGradient id="paint1_linear_467_302" x1="100" y1="68.8994" x2="100" y2="180.767" gradientUnits="userSpaceOnUse">
<stop stop-color="#6857F6"/>
<stop offset="1" stop-color="#A549E2"/>
</linearGradient>
<linearGradient id="paint2_linear_467_302" x1="109.58" y1="18.1792" x2="109.58" y2="89.1178" gradientUnits="userSpaceOnUse">
<stop stop-color="#6857F6"/>
<stop offset="1" stop-color="#A549E2"/>
</linearGradient>
<clipPath id="clip0_467_302">
<rect width="200" height="180" fill="white" transform="translate(0 0.767578)"/>
</clipPath>
</defs>
</svg>
